#!OML:ASF E:\Style4\Style4.ASF
:FULLY-SPECIFIED
:DEGREES
3021
root -0.591899 17.7626 -2.72843 -0.31582 0.510014 2.04542
lowerback 10.7868 3.9438 1.29704
upperback 5.76814 5.34592 0.736099
thorax 0.0287392 2.69198 -0.52208
lowerneck 0.122917 -6.27528 -7.14714
upperneck 14.3709 -8.67232 4.41943
head 4.80093 -4.37353 2.14506
rclavicle -7.63333e-014 -7.15625e-015
rhumerus 18.1002 15.7459 -70.0611
rradius 63.5824
rwrist 19.3267
rhand -33.8802 24.1318
rfingers 7.12502
rthumb -7.06395 -5.73032
lclavicle -7.63333e-014 -7.15625e-015
lhumerus -44.4105 -39.2573 97.5729
lradius 114.314
lwrist 20.8245
lhand -16.3539 17.2899
lfingers 7.12502
lthumb 9.85874 47.0391
rfemur -16.1267 1.32389 17.7706
rtibia 33.4679
rfoot -16.5186 -12.9875
rtoes -7.48838
lfemur -13.2513 1.55206 -20.0874
ltibia 30.8862
lfoot -17.3604 9.34425
ltoes -14.3326
3022
root -0.590142 17.7647 -2.72596 -0.307286 0.521842 2.17426
lowerback 10.7344 3.94429 1.16219
upperback 5.78672 5.33327 0.714844
thorax 0.0657979 2.68354 -0.463481
lowerneck 0.106557 -6.26628 -7.15565
upperneck 14.3627 -8.65486 4.39096
head 4.79933 -4.36666 2.13815
rclavicle 9.93923e-016 -2.38542e-015
rhumerus 18.0933 15.7937 -70.0582
rradius 63.6305
rwrist 19.1578
rhand -33.9835 24.0284
rfingers 7.12502
rthumb -7.16362 -5.83033
lclavicle 9.93923e-016 -2.38542e-015
lhumerus -44.6186 -39.2493 97.6734
lradius 114.269
lwrist 21.0032
lhand -16.424 17.38
lfingers 7.12502
lthumb 9.79114 47.1324
rfemur -16.1136 1.30193 17.617
rtibia 33.4365
rfoot -16.4204 -13.0122
rtoes -7.79528
lfemur -13.2066 1.52287 -20.2411
ltibia 30.8149
lfoot -17.3446 9.38374
ltoes -14.36
3023
root -0.587018 17.7671 -2.7206 -0.32717 0.553089 2.30408
lowerback 10.6727 3.94635 1.0759
upperback 5.82014 5.327 0.681436
thorax 0.129179 2.67977 -0.443264
lowerneck 0.128475 -6.26872 -7.16559
upperneck 14.3219 -8.65749 4.38872
head 4.78366 -4.36886 2.1401
rclavicle 4.1546e-014 -3.10104e-014
rhumerus 18.0753 15.8494 -70.0155
rradius 63.6434
rwrist 18.8655
rhand -34.1115 24.0035
rfingers 7.12502
rthumb -7.28716 -5.851
lclavicle 4.1546e-014 -3.10104e-014
lhumerus -44.8057 -39.2974 97.7704
lradius 114.284
lwrist 21.1535
lhand -16.6209 17.8206
lfingers 7.12502
lthumb 9.6011 47.5818
rfemur -16.0345 1.26673 17.4533
rtibia 33.408
rfoot -16.5119 -12.9747
rtoes -7.68838
lfemur -13.0921 1.48166 -20.4091
ltibia 30.7193
lfoot -17.3194 9.42905
ltoes -14.6029
3024
root -0.585181 17.7698 -2.71738 -0.333421 0.599069 2.33607
lowerback 10.6354 3.91943 1.04054
upperback 5.82681 5.28801 0.689056
thorax 0.151747 2.65963 -0.408958
lowerneck 0.151131 -6.25446 -7.15405
upperneck 14.311 -8.6314 4.32424
head 4.77187 -4.35913 2.12085
rclavicle 1.05356e-014 5.56597e-015
rhumerus 18.0702 15.9667 -69.9837
rradius 63.6457
rwrist 18.7095
rhand -34.2286 23.9063
rfingers 7.12502
rthumb -7.40023 -5.94428
lclavicle 1.05356e-014 5.56597e-015
lhumerus -44.9713 -39.2182 97.8522
lradius 114.295
lwrist 21.2437
lhand -16.5569 18.021
lfingers 7.12502
lthumb 9.66291 47.7794
rfemur -15.9806 1.23271 17.4115
rtibia 33.3846
rfoot -16.5818 -12.9653
rtoes -7.43016
lfemur -13.0213 1.4274 -20.4571
ltibia 30.6053
lfoot -17.2589 9.46492
ltoes -14.7489
3025
root -0.583361 17.7707 -2.71604 -0.324528 0.6074 2.30517
lowerback 10.6199 3.92984 1.10155
upperback 5.80339 5.30742 0.693296
thorax 0.141264 2.67045 -0.440083
lowerneck 0.201721 -6.27613 -7.14735
upperneck 14.3165 -8.66208 4.30979
head 4.76616 -4.37513 2.11534
rclavicle -5.36719e-014 7.95139e-016
rhumerus 17.9969 15.9787 -69.9373
rradius 63.6753
rwrist 18.6118
rhand -34.2139 23.9139
rfingers 7.12502
rthumb -7.38603 -5.93717
lclavicle -5.36719e-014 7.95139e-016
lhumerus -45.2021 -39.2591 97.9705
lradius 114.283
lwrist 21.3836
lhand -16.4796 17.7408
lfingers 7.12502
lthumb 9.73744 47.4957
rfemur -15.9616 1.23047 17.4382
rtibia 33.3583
rfoot -16.5946 -12.9911
rtoes -7.5002
lfemur -12.9896 1.42838 -20.431
ltibia 30.5199
lfoot -17.2129 9.48972
ltoes -14.9393
3026
root -0.580784 17.7732 -2.71374 -0.312738 0.586633 2.33962
lowerback 10.5891 3.94474 1.10614
upperback 5.80122 5.32708 0.67881
thorax 0.157806 2.68072 -0.457155
lowerneck 0.164102 -6.29133 -7.12766
upperneck 14.3109 -8.67532 4.26597
head 4.76886 -4.38232 2.09676
rclavicle -7.55382e-015 2.38542e-015
rhumerus 17.9832 16.0061 -69.8575
rradius 63.715
rwrist 18.6036
rhand -34.1295 23.7627
rfingers 7.12502
rthumb -7.30454 -6.09118
lclavicle -7.55382e-015 2.38542e-015
lhumerus -45.3853 -39.3118 98.0813
lradius 114.236
lwrist 21.3863
lhand -16.4749 17.6262
lfingers 7.12502
lthumb 9.74195 47.3809
rfemur -15.9653 1.2085 17.3867
rtibia 33.3408
rfoot -16.5206 -12.9963
rtoes -7.72732
lfemur -12.9536 1.40038 -20.4838
ltibia 30.4527
lfoot -17.1708 9.55282
ltoes -14.9389
3027
root -0.577316 17.7741 -2.71308 -0.311232 0.548947 2.37356
lowerback 10.5736 3.9511 1.12134
upperback 5.80088 5.33642 0.657695
thorax 0.169436 2.68613 -0.486905
lowerneck 0.124972 -6.2939 -7.13597
upperneck 14.3135 -8.67413 4.24943
head 4.77588 -4.38253 2.09163
rclavicle -3.43897e-014 -2.38542e-015
rhumerus 18.0005 16.0195 -69.8005
rradius 63.7311
rwrist 18.7828
rhand -34.0238 23.6057
rfingers 7.12502
rthumb -7.20255 -6.2517
lclavicle -3.43897e-014 -2.38542e-015
lhumerus -45.5174 -39.38 98.1473
lradius 114.224
lwrist 21.2982
lhand -16.5335 17.8009
lfingers 7.12502
lthumb 9.68545 47.5582
rfemur -15.9745 1.21352 17.3348
rtibia 33.3398
rfoot -16.4962 -12.9684
rtoes -7.6889
lfemur -12.9042 1.33491 -20.5402
ltibia 30.3896
lfoot -17.168 9.62858
ltoes -14.8214
